<svg width="49" height="42" viewBox="0 0 49 42" fill="none" xmlns="http://www.w3.org/2000/svg">
<path d="M32.9452 20.8617C32.9452 25.3721 29.3004 29.0168 24.79 29.0168C20.2796 29.0168 16.635 25.3721 16.635 20.8617C16.635 16.3513 20.2796 12.7066 24.79 12.7066C29.3004 12.7066 32.9452 16.3513 32.9452 20.8617Z" stroke="white" stroke-width="3.41696" stroke-linecap="round" stroke-linejoin="round"/>
<path d="M24.79 39.7005C32.8313 39.7005 40.3258 34.9623 45.5424 26.7616C47.5925 23.5497 47.5925 18.1509 45.5424 14.9389C40.3258 6.73818 32.8313 2 24.79 2C16.7487 2 9.25419 6.73818 4.03763 14.9389C1.98746 18.1509 1.98746 23.5497 4.03763 26.7616C9.25419 34.9623 16.7487 39.7005 24.79 39.7005Z" stroke="white" stroke-width="3.41696" stroke-linecap="round" stroke-linejoin="round"/>
</svg>
