<svg fill="none" height="24" viewBox="0 0 24 24" width="24" xmlns="http://www.w3.org/2000/svg"><g stroke="#000" stroke-miterlimit="10" stroke-width="1.5"><path d="m2 10.9901v-1.72997c0-.78.44999-1.48 1.14999-1.81l6.5-3.05999c.54001-.25 1.16001-.25 1.70001 0l2.67 1.25998c-.02.12-.02.24-.02.35 0 2.21 1.79 3.99998 4 3.99998.35 0 .68-.03998 1-.12998v6.85998c0 .78-.45 1.48-1.15 1.81l-6.5 3.06c-.54.25-1.16.25-1.70001 0l-6.5-3.06c-.7-.33-1.14999-1.03-1.14999-1.81v-1.29" stroke-linecap="round" stroke-linejoin="round"/><path d="m7 10.5v3c0 1.1.9 2 2 2s2-.9 2-2v-3" stroke-linecap="round"/><path d="m14 10.5v4.94" stroke-linecap="round"/><path d="m22 6c0 1.86-1.27 3.43-3 3.87-.32.09-.65.13-1 .13-2.21 0-4-1.79-4-4 0-.11 0-.23.02-.34.17-2.05 1.88-3.66 3.98-3.66 2.21 0 4 1.79 4 4z"/></g><path d="m19.0901 5.91006c.24-.21.3701-.49001.3701-.83001 0-.77-.58-1.28-1.46-1.28s-1.4601.52-1.4601 1.28c0 .33.1301.62001.3701.83001-.32.24-.5.59002-.5.98002 0 .81.6099 1.30999 1.5999 1.30999s1.6001-.49999 1.6001-1.30999c-.01-.4-.1901-.75002-.5201-.98002zm-1.0899-.39999c-.27 0-.44-.15-.44-.38 0-.28.23-.37.44-.37s.44.1.44.37c0 .23-.17.38-.44.38zm0 .82999c.28 0 .58.12001.58.45001 0 .29-.22.45999-.58.45999s-.58-.16999-.58-.45999c0-.41.44-.45001.58-.45001z" fill="#000"/></svg>